<svg id="Layer_1" data-name="Layer 1" xmlns="http://www.w3.org/2000/svg" xmlns:xlink="http://www.w3.org/1999/xlink" viewBox="0 0 514.58 512"><defs><style>.cls-1{fill:url(#linear-gradient);}.cls-2{fill:url(#linear-gradient-2);}.cls-3{fill:url(#linear-gradient-3);}.cls-4{fill:#060606;}.cls-5{fill:#0d0d0c;}.cls-6{fill:#0a0908;}</style><linearGradient id="linear-gradient" x1="183.36" y1="348.1" x2="680.38" y2="348.1" gradientUnits="userSpaceOnUse"><stop offset="0" stop-color="#fac929"/><stop offset="0.05" stop-color="#fbd553"/><stop offset="0.11" stop-color="#fbe079"/><stop offset="0.17" stop-color="#fbe997"/><stop offset="0.23" stop-color="#fcefaf"/><stop offset="0.3" stop-color="#fcf4c0"/><stop offset="0.37" stop-color="#fcf7ca"/><stop offset="0.46" stop-color="#fcf8cd"/><stop offset="0.78" stop-color="#edd586"/><stop offset="1" stop-color="#fcf8cd"/></linearGradient><linearGradient id="linear-gradient-2" x1="214.62" y1="491.23" x2="694.61" y2="491.23" xlink:href="#linear-gradient"/><linearGradient id="linear-gradient-3" x1="309.56" y1="573.4" x2="651.93" y2="573.4" xlink:href="#linear-gradient"/></defs><path class="cls-1" d="M641.23,335.51c7.09-4.06,12.63-10,17.82-16,4-4.71,8.45-9.34,10.94-15.23,1.73-4.08,2.21-8-1.67-11.32-.25-3.26-3.11-3.81-5.3-4.69a52.16,52.16,0,0,0-21-3.6c-1.11-1.91-4.9.2-4.68-2.22s3.31-1.15,5.1-1.43c10.09-1.59,20-1.41,29.25,3.7a21.13,21.13,0,0,1,7.49,7.16c-.14.34-.5.75-.41,1,2.51,7.13,2.15,14-1.78,20.55a137.91,137.91,0,0,1-19.7,25.15c-11.47,11.74-24.8,21.27-37.79,31.18-15.83,12.08-32.76,22.46-49.59,33-23.6,14.86-47.53,29.13-72.32,41.87-25.09,12.9-50.4,25.4-76.58,36-18.2,7.39-36.23,15.23-54.61,22.17A758.14,758.14,0,0,1,292,526.21c-25.46,6.74-51.06,12.24-77.49,13-2.41-.05-3.21-1.94-4.13-3.66-9.81-18.49-17.94-37.68-21.73-58.32A303.33,303.33,0,0,1,183.55,435a217.1,217.1,0,0,1,10.68-76.89,227.35,227.35,0,0,1,35.13-67,221.91,221.91,0,0,1,20.15-23.49,248.74,248.74,0,0,1,64.23-46.15,212.1,212.1,0,0,1,34.78-14.07,193,193,0,0,1,41.64-7.93c9.84-.7,19.64-1.63,29.52-1.66a14.4,14.4,0,0,0,8.34-3.1c9.38-6.89,19-13.56,27.35-21.68,1.27-1.23,2.85-2.31,3-4.35,2.75-.93,1-1.77-.12-2.39-5.74-3-11.94-3.39-18.25-3-.36-.24-.71-.67-1.08-.7-1.48-.12-2.91-.61-2.87-2.2s1.84-1.91,3-2.18a48.27,48.27,0,0,1,19.49-.3c4.59.84,9.21,1.24,11.34,6.33,1.24,5.58-.55,10.23-3.91,14.71a121.42,121.42,0,0,1-24.51,23.94c-39,29.51-81.53,52.88-126.49,72.06-22.58,9.63-45.37,17.94-70.19,19.18-.68,0-2-.28-1.77,1.38a184.09,184.09,0,0,0,37.32-3.12c5.23-1,10-4,15.49-3.57,1.74-.47,3.51-.83,5.21-1.41,21.81-7.38,43.47-15.14,64.86-23.66,26.6-10.6,51.81-23.57,72.68-43.65,4.73-4.55,9.32-9.48,10.48-16.44.27-3.91,3.16-4.55,6.22-5,5.37,2.68,11.4,2.45,17.09,3.63,7.92,1.64,15.51,4.21,23.22,6.45a200.51,200.51,0,0,1,29.51,11.13c3.31,1.56,7.19,3.16,9,7-2.88.94-5.84,1.72-9.21,4.44,5,.3,8.92.68,12.7-1.09.62.36,1.23,1,1.87,1,7.95.26,14.49,3.53,20.31,8.81,6.63,6,8.23,6.26,14.39-.29,5.06-5.37,10.3-10.65,14.73-16.67,2.25-3.07,5.64-5.18,6.26-9.45a10.92,10.92,0,0,0-.18-4.7c-1.73-4.06-5.76-4.55-9.22-5.53a92.63,92.63,0,0,0-34.29-2.81c-1.05,0-2.11-.06-3.16-.12a1.79,1.79,0,0,1-1.88-1.59c-.1-1.31.85-1.67,2-1.87,10.19-1.64,20.29-4.35,30.72-3.67,9.74.62,19.23,2.22,25.72,10.77,1.66,7.46,1.85,14.69-2.09,21.68-6.68,11.83-16.69,20.69-26.51,29.61-8,7.25-17,13.33-25.63,19.8-17.51,13.12-35.42,25.64-54.12,36.95-22.46,13.58-45.83,25.55-69.28,37.34-17.43,8.77-34.62,18.13-52.73,25.44-25.83,10.41-51.8,20.53-78.19,29.47-22,7.47-44.26,14.38-67.31,18.23-12.78,2.13-25.57,3.82-38.58,3.54,10,3.7,20.27,1.31,30.12.34A309.28,309.28,0,0,0,277,415.34c4.76-1.39,9.26-3.95,14.41-3.91a13,13,0,0,0,4.9-.5q22.89-6.17,45.24-14.11c33.8-12,67-25.43,99.48-40.7,40.12-18.9,79.74-38.78,113.86-67.75,10-8.46,19.56-17.44,26.55-28.73.76-.24,1.56-.42,1.58-1.45a.39.39,0,0,1-.42-.42c6.28,6.17,12.84,12.08,18.77,18.56,6.24,6.83,12.36,13.83,17.12,21.85,0,.7-.09,1.39,1,1l-.06-.08c-.18,1.48,0,2.72,1.88,2.78l-.06-.06c-.26,1.52,0,2.71,1.87,2.78l-.05-.06c-.28,1.52,0,2.71,1.86,2.76l0,0c-1,1.36.43,1.9.93,2.76.12,1.86-1.3,1.64-2.42,1.72a15.65,15.65,0,0,0-7.07,2,25.44,25.44,0,0,0,10.35,1.83c1.55,2,4.76,2.32,5.43,5.26.09.55.07,1.22,1,.92l-.06-.06c.8,5.2,4,9.34,6.26,13.85C639.72,336.51,640.65,336.77,641.23,335.51Z" transform="translate(-183.36 -157)"/><path class="cls-2" d="M291.48,623.43a203.66,203.66,0,0,1-38.31-30.73c-13.3-13.78-25.68-28.4-35.81-44.76a16.6,16.6,0,0,1-2.74-7,196.79,196.79,0,0,0,30-1c20.45-2.44,40.45-7.22,60.31-12.57,6-1.62,12.06-3.08,18.09-4.61,2.84,1.3,5-.6,7.41-1.54,8.57-1.62,16.84-4.39,25.19-6.86,47.91-14.14,93.3-34.59,138.69-55.11,37.18-16.8,72.35-37,106.28-59.55,16.31-10.83,30.5-24,44-38.1.95-1,1.34-3.16,3.31-2.42,1.59.6,1,2.55,1.6,3.81,9,29.39,11.5,59.46,8.46,90.65,1.75-1.19,2.64-1.76,3.48-2.4a4.73,4.73,0,0,0,.81-1.05c10-7.27,18.2-16.48,26.13-25.81,5.84-6.89,4.54-16.09-6.87-21.9-1-.52-2.27-.61-2.71-1.94,6.28-1.75,10.44,0,14.89,6.36-.63,2.86,1.19,5.45.9,8.27-1.16,6.83-4.47,12.57-9,17.69-.84,1-2.18,1.78-1.5,3.43l-.11-.22c-1.06.17-1.29.85-1.11,1.79l0,0q-1-.06-1,1l.06-.06c-.67,0-1,.32-1,1l.06-.06a.88.88,0,0,0-1,1l.07-.07a.89.89,0,0,0-1,1l.06-.07c-.63.05-.88.47-1,1-1.76,2.28-3.43,4.65-5.93,6.24-1,.14-2,.28-2.09,1.63a52.51,52.51,0,0,1-9.45,7.39,10.37,10.37,0,0,0-5,8.7,12.13,12.13,0,0,1-5.44,9.89C636,486.76,622,497.74,606.67,506.79c-32.93,19.42-66.58,37.46-101.92,52.18-19.66,8.19-39.37,16.23-59.5,23.2C415.14,592.6,385.2,603.66,354.42,612,333.83,617.55,313.24,624,291.48,623.43Z" transform="translate(-183.36 -157)"/><path class="cls-3" d="M314.39,637.31c-1.85-.37-3.08-1.63-4.83-3.36,7.67-1.09,14.83-2.22,22-3.11,24.59-3,48.38-9.38,71.66-17.64,42.3-15,83.84-31.91,123.81-52.42a755.78,755.78,0,0,0,68.52-39.33c1.21-.79,4.38-.84,2.95-3.9a.59.59,0,0,1,.59.45,5.68,5.68,0,0,0,5.73-3.86c15.09-9.91,30.45-19.44,44-31.48a3.39,3.39,0,0,1,2.93-.76c0,1.27.09,2.54.14,3.81a24.66,24.66,0,0,0-1.89,5.48c-3.7,17.75-9,35-17.66,51-24.25,45-59.5,78.38-105.91,99.88-45.59,21.12-93.15,27.9-142.76,19.19-18.61-3.26-36.47-9-53.86-16.34Z" transform="translate(-183.36 -157)"/><path class="cls-4" d="M323.06,522.74c-6,1.53-12.08,3-18.09,4.61-19.86,5.35-39.86,10.13-60.31,12.57a196.79,196.79,0,0,1-30,1c0-.57-.05-1.14-.08-1.72,26.43-.75,52-6.25,77.49-13a758.14,758.14,0,0,0,74.39-23.37c18.38-6.94,36.41-14.78,54.61-22.17,26.18-10.62,51.49-23.12,76.58-36,24.79-12.74,48.72-27,72.32-41.87,16.83-10.59,33.76-21,49.59-33,13-9.91,26.32-19.44,37.79-31.18A137.91,137.91,0,0,0,677,313.4c3.93-6.52,4.29-13.42,1.78-20.55-.09-.26.27-.67.41-1C686,299.74,686,308,680.54,317c-9,14.67-20.63,27-33.92,38.06-31.27,26.07-65.75,47.31-100.49,68.2-25.47,15.33-51.87,28.89-78.61,41.83-23.25,11.27-47.19,20.91-71,30.82-21.71,9-43.8,16.91-66.05,24.42A20.69,20.69,0,0,0,323.06,522.74Z" transform="translate(-183.36 -157)"/><path class="cls-5" d="M651.79,481.9a3.39,3.39,0,0,0-2.93.76c-13.57,12-28.93,21.57-44,31.48-2.26.77-4.77,1.17-5.73,3.86a.59.59,0,0,0-.59-.45c-17.29,9.31-34.33,19.11-52,27.7-23.72,11.54-48,21.7-72.58,31.32-29.74,11.66-60.25,21-90.4,31.47-23.76,8.23-48.15,13.87-72.88,18.26-5.79,1-11.13,2.57-16.61-.61-1.05-.61-2.13-1-2.56-2.26,21.76.52,42.35-5.88,62.94-11.45,30.78-8.32,60.72-19.38,90.83-29.81,20.13-7,39.84-15,59.5-23.2,35.34-14.72,69-32.76,101.92-52.18,15.35-9.05,29.36-20,43.72-30.52a12.13,12.13,0,0,0,5.44-9.89,10.37,10.37,0,0,1,5-8.7,52.51,52.51,0,0,0,9.45-7.39c1.09,0,1.53-.91,2.09-1.63,2.5-1.59,4.17-4,5.93-6.24l1-1-.06.07,1-1-.07.07,1-1-.06.06,1-1-.06.06,1-1,0,0c.73-.38,1.66-.63,1.11-1.79l.1.22c4.24-2.65,7-6.75,9.55-10.77,2-3,3.29-6.66,1-10.35.29-2.82-1.53-5.41-.9-8.27,6.38,6,5.27,17.11-1.16,25.27-8.15,10.35-16.93,20.06-27.32,28.24a14.49,14.49,0,0,0-6,11.44C659,476.62,654.76,478.9,651.79,481.9Z" transform="translate(-183.36 -157)"/><path class="cls-6" d="M291.42,411.43c-5.15,0-9.65,2.52-14.41,3.91a309.28,309.28,0,0,1-56.44,11.17c-9.85,1-20.12,3.36-30.12-.34,13,.28,25.8-1.41,38.58-3.54,23.05-3.85,45.26-10.76,67.31-18.23,26.39-8.94,52.36-19.06,78.19-29.47,18.11-7.31,35.3-16.67,52.73-25.44,23.45-11.79,46.82-23.76,69.28-37.34,18.7-11.31,36.61-23.83,54.12-36.95,8.64-6.47,17.65-12.55,25.63-19.8,9.82-8.92,19.83-17.78,26.51-29.61,3.94-7,3.75-14.22,2.09-21.68,6,5.3,6.56,13.29,2.83,22.24-3,7.12-7.83,12.79-13,18.34-4,4.37-9.06,7.82-12.14,13.08a.39.39,0,0,0,.42.42c-.74-.63-1.11.27-1.67.4a16.33,16.33,0,0,0-3,1.62C560.8,274.92,542,287.93,523.26,301c-24.93,17.31-51.78,31.33-78.69,45.17-21.64,11.13-43.17,22.55-65.65,32-18.34,7.71-37,14.63-55.6,21.6C312.71,403.7,302.05,407.54,291.42,411.43Z" transform="translate(-183.36 -157)"/><path class="cls-5" d="M329.85,644.91c17.39,7.29,35.25,13.08,53.86,16.34,49.61,8.71,97.17,1.93,142.76-19.19,46.41-21.5,81.66-54.92,105.91-99.88,8.63-16,14-33.24,17.66-51a24.66,24.66,0,0,1,1.89-5.48c3.3-.49,3.66.48,3,3.82-4.23,19.91-9.79,39.31-19.43,57.37a227.23,227.23,0,0,1-34.27,47.33,223.29,223.29,0,0,1-70.84,51.32,251,251,0,0,1-69.66,21,219.56,219.56,0,0,1-47.5,1.88c-16.22-1.21-32.38-3.58-48.06-8.47-12.48-3.89-25.07-7.39-36.57-13.85Z" transform="translate(-183.36 -157)"/></svg>