<svg width="341" height="70" viewBox="0 0 341 70" fill="none" xmlns="http://www.w3.org/2000/svg">
<path d="M62.7533 24.4173C63.6871 23.8257 64.5114 23.0773 65.1898 22.2051C65.7951 21.5911 66.2997 20.8856 66.6849 20.1146C66.8406 19.873 66.9039 19.5835 66.8632 19.2991C66.8226 19.0147 66.6806 18.7544 66.4634 18.566C66.4634 18.1236 66.0315 18.0462 65.7325 17.9245C64.8206 17.565 63.8437 17.3992 62.864 17.4378C62.709 17.1723 62.1885 17.4378 62.2217 17.1281C62.2549 16.8184 62.6758 16.9732 62.9194 16.9401C64.2734 16.6411 65.6891 16.8169 66.9286 17.4378C67.3447 17.6764 67.6949 18.0147 67.9475 18.4222C67.9475 18.4222 67.881 18.5218 67.9475 18.555C68.1281 19.0119 68.2002 19.5044 68.1579 19.9939C68.1156 20.4833 67.9602 20.9563 67.7038 21.3755C66.94 22.6232 66.0331 23.7777 65.0015 24.8155C63.3881 26.3706 61.6591 27.8016 59.8295 29.0961C57.6145 30.7553 55.3441 32.1711 53.0405 33.6201C49.8066 35.6553 46.5284 37.6021 43.073 39.3497C39.6176 41.0973 36.1733 42.8229 32.585 44.2387C30.0932 45.2452 27.6234 46.3182 25.0983 47.2694C21.76 48.5111 18.359 49.5781 14.9094 50.466C11.4522 51.4612 7.89248 52.0587 4.29951 52.2469C3.96727 52.2469 3.85652 51.9814 3.73469 51.7381C2.33843 49.2636 1.33351 46.5884 0.755519 43.8073C0.378504 41.8981 0.134271 39.9652 0.0245704 38.0224C-0.120592 34.4562 0.378359 30.893 1.49754 27.5033C2.57339 24.1992 4.19825 21.0994 6.30409 18.3338C7.14793 17.2021 8.06937 16.1303 9.06176 15.1261C11.66 12.5636 14.6509 10.4315 17.9217 8.81021C19.4498 8.03098 21.0433 7.38698 22.684 6.88559C24.538 6.30597 26.4511 5.93497 28.3876 5.77949C29.7055 5.70206 31.0345 5.58039 32.3968 5.52508C32.801 5.50461 33.1884 5.35755 33.5042 5.10476C34.8297 4.22366 36.095 3.25553 37.2919 2.20678C37.458 2.04086 37.6795 1.88601 37.7017 1.60948C38.0782 1.47675 37.8456 1.36614 37.7017 1.27765C36.9196 0.904931 36.0495 0.755629 35.1876 0.846269C35.1323 0.846269 35.088 0.757781 35.0326 0.74672C34.9772 0.735659 34.6339 0.669293 34.645 0.448072C34.6561 0.226852 34.8886 0.193669 35.0547 0.149425C35.9185 -0.0379339 36.8113 -0.0492203 37.6795 0.116242C38.3108 0.226852 38.9421 0.282157 39.23 0.979002C39.3163 1.32597 39.3212 1.68815 39.2443 2.03732C39.1675 2.38649 39.011 2.71323 38.787 2.99211C37.8405 4.24809 36.7221 5.3651 35.4645 6.31042C30.1125 10.2914 24.2916 13.6012 18.1322 16.1658C15.0874 17.6199 11.8043 18.5118 8.44156 18.7983C8.35296 18.7983 8.17576 18.7983 8.19791 18.9974C9.91548 19.0069 11.6297 18.8439 13.3146 18.5107C13.9948 18.2552 14.7062 18.0915 15.4299 18.024C15.6735 17.9577 15.9172 17.9024 16.1497 17.8249C19.1289 16.8184 22.097 15.7565 25.0097 14.5951C28.6914 13.2745 32.0779 11.2452 34.9772 8.62217C35.6848 8.06038 36.1902 7.28389 36.417 6.40997C36.417 5.87904 36.8489 5.79055 37.2697 5.73524C38.0242 6.0002 38.8095 6.16748 39.6066 6.23299C40.7141 6.45421 41.733 6.80816 42.7851 7.10681C44.1691 7.51317 45.5204 8.02343 46.8275 8.63323C47.3406 8.79428 47.7776 9.13633 48.0568 9.59554C47.5995 9.71207 47.1702 9.91892 46.7942 10.2039C47.3813 10.2988 47.9829 10.2456 48.5441 10.049C48.6216 10.049 48.7102 10.1928 48.7988 10.1928C49.8422 10.2402 50.8317 10.6693 51.5786 11.3985C52.4868 12.2281 52.6861 12.2613 53.55 11.3985C54.2682 10.6772 54.9413 9.91258 55.5656 9.10886C55.8757 8.68854 56.3409 8.40095 56.4295 7.82578C56.4795 7.61112 56.4795 7.38784 56.4295 7.17318C56.1969 6.62012 55.6431 6.55376 55.1669 6.42103C53.6388 6.00471 52.0469 5.87347 50.4711 6.03389H50.0392C49.977 6.03442 49.9168 6.01222 49.8699 5.97147C49.823 5.93072 49.7926 5.87424 49.7845 5.81267C49.7845 5.63569 49.8952 5.58039 50.0614 5.55827C51.445 5.20316 52.864 5.00283 54.292 4.96097C54.9526 4.92982 55.6118 5.04677 56.2212 5.30325C56.8306 5.55972 57.3748 5.94922 57.8138 6.44315C58.1078 7.43104 58.0045 8.49446 57.5259 9.40751C56.5452 10.9465 55.3179 12.3142 53.8933 13.4558C52.7692 14.4173 51.5975 15.3217 50.3825 16.1658C47.9903 17.9577 45.5317 19.6721 42.9734 21.2207C39.8945 23.0789 36.6938 24.716 33.4821 26.3309C31.0345 27.5255 28.6977 28.8085 26.2169 29.8593C22.6729 31.2752 19.1178 32.6688 15.4963 33.8856C12.4979 34.9674 9.41627 35.8034 6.28194 36.3853C4.53993 36.7096 2.77115 36.8688 0.999169 36.861C2.34941 37.1996 3.7602 37.2186 5.11906 36.9163C7.74595 36.6489 10.3417 36.1341 12.8716 35.3788C13.5036 35.1082 14.1712 34.9294 14.854 34.8479C15.0777 34.8697 15.3035 34.8471 15.5185 34.7815C17.608 34.2137 19.6753 33.5685 21.7205 32.8458C26.3508 31.2305 30.8972 29.3847 35.3427 27.3153C40.8802 24.727 46.2737 22.006 50.9474 18.0462C52.3552 16.9338 53.5808 15.609 54.5799 14.1195C54.6796 14.1195 54.7904 14.0531 54.8014 13.9204C55.6542 14.761 56.5513 15.5685 57.3708 16.4534C58.2532 17.3636 59.0366 18.3647 59.7077 19.4399C59.7077 19.5394 59.7077 19.6279 59.8406 19.5836C59.8406 19.7827 59.8406 19.9597 60.0953 19.9708C60.0953 20.1809 60.0953 20.3358 60.35 20.3469C60.35 20.557 60.35 20.7229 60.6047 20.734C60.4718 20.922 60.6712 20.9995 60.7376 21.1101C60.8041 21.2207 60.5604 21.3424 60.4054 21.3534C60.0664 21.3654 59.7355 21.4603 59.4419 21.6299C59.8878 21.8117 60.3669 21.8984 60.8484 21.8843C61.0699 22.1609 61.5018 22.1941 61.6015 22.6033C61.6015 22.6697 61.6015 22.7692 61.7344 22.725C61.9153 23.4005 62.2032 24.0428 62.5872 24.6275C62.5429 24.5501 62.6647 24.5943 62.7533 24.4173Z" fill="url(#paint0_linear_208_13109)"/>
<path d="M14.8318 63.8056C12.918 62.622 11.1553 61.2106 9.58228 59.6024C7.73702 57.7435 6.09598 55.693 4.68714 53.4857C4.48733 53.1991 4.35829 52.8693 4.31059 52.5234C5.68161 52.5788 7.05484 52.5345 8.41941 52.3907C11.1957 52.0085 13.9417 51.4319 16.637 50.6651L19.1178 50.0347C19.5055 50.2116 19.8045 49.9572 20.1367 49.8245C21.3007 49.5721 22.4504 49.2583 23.5811 48.8843C30.082 46.8089 36.4319 44.2884 42.5857 41.3407C47.6663 39.0222 52.5482 36.2921 57.1826 33.1777C59.3795 31.6715 61.4004 29.924 63.2074 27.9679C63.3403 27.8241 63.3956 27.5255 63.6614 27.6361C63.9272 27.7467 63.7943 27.979 63.8829 28.1559C65.0778 32.1737 65.4544 36.3898 64.9904 40.5554C65.2341 40.3894 65.3559 40.312 65.4667 40.2235C65.5774 40.135 65.5442 40.135 65.5885 40.0797C66.917 39.0496 68.1178 37.8651 69.1657 36.5513C69.9631 35.6111 69.7859 34.3391 68.2243 33.5537C68.0804 33.4874 67.9142 33.4763 67.8478 33.2883C68.2358 33.1626 68.6563 33.1819 69.0311 33.3427C69.4059 33.5034 69.7096 33.7946 69.8856 34.1621C69.8081 34.5492 70.0517 34.9032 70.0074 35.2682C69.8402 36.1772 69.4133 37.0185 68.7781 37.6906C68.6673 37.8233 68.4791 37.9339 68.5787 38.1551C68.4348 38.1551 68.4015 38.2657 68.4348 38.3985C68.4169 38.3967 68.3988 38.399 68.3819 38.4051C68.365 38.4111 68.3497 38.4209 68.337 38.4335C68.3243 38.4462 68.3145 38.4616 68.3085 38.4784C68.3024 38.4953 68.3001 38.5133 68.3019 38.5312C68.2022 38.5312 68.169 38.5312 68.169 38.6639C68.0804 38.6639 68.0361 38.7082 68.0361 38.7967C67.9548 38.7967 67.9105 38.8409 67.9032 38.9294C67.8146 38.9294 67.7813 38.9958 67.7703 39.0621C67.5546 39.3957 67.2808 39.6879 66.9618 39.9249C66.8178 39.9249 66.6849 39.9249 66.6738 40.1461C66.2821 40.5303 65.8473 40.8681 65.3781 41.1526C65.174 41.28 65.0046 41.4556 64.8848 41.664C64.765 41.8724 64.6986 42.1071 64.6914 42.3472C64.69 42.6161 64.6213 42.8803 64.4918 43.116C64.3622 43.3516 64.1758 43.5512 63.9494 43.6967C61.978 45.1346 60.0621 46.6389 57.9578 47.8778C53.4741 50.5768 48.8076 52.9607 43.9923 55.0121C41.301 56.1182 38.5987 57.2243 35.8411 58.1866C31.7212 59.6135 27.6234 61.1289 23.4039 62.2682C20.6365 63.1939 17.7488 63.7118 14.8318 63.8056Z" fill="url(#paint1_linear_208_13109)"/>
<path d="M17.9771 65.7081C17.7146 65.6279 17.4829 65.4697 17.3126 65.2546C18.3647 65.0998 19.3393 64.9449 20.325 64.8232C23.6784 64.3827 26.9728 63.5741 30.1485 62.4119C35.9505 60.4152 41.6147 58.0393 47.1043 55.2997C50.3304 53.6489 53.4688 51.8324 56.507 49.8577C56.6731 49.7471 57.105 49.7471 56.9057 49.3267C56.9195 49.3199 56.9346 49.3164 56.95 49.3164C56.9654 49.3164 56.9805 49.3199 56.9943 49.3267C57.1629 49.3379 57.3304 49.2929 57.4707 49.1988C57.6109 49.1048 57.716 48.9669 57.7695 48.8069C59.8827 47.5157 61.8998 46.074 63.8054 44.4931C63.8602 44.4478 63.9245 44.4154 63.9935 44.3981C64.0624 44.3809 64.1344 44.3793 64.2041 44.3935C64.2041 44.5705 64.2041 44.7364 64.2041 44.9134C64.0912 45.1538 64.0058 45.4061 63.9494 45.6656C63.4826 48.0933 62.6656 50.4405 61.524 52.634C58.3535 58.6917 53.2525 63.5216 47.0268 66.3607C40.9417 69.2541 34.102 70.1709 27.4684 68.9822C24.9344 68.5234 22.4602 67.7813 20.0924 66.77L17.9771 65.7081Z" fill="url(#paint2_linear_208_13109)"/>
<path d="M19.1621 50.0347L16.637 50.6651C13.9272 51.4339 11.1663 52.0105 8.37511 52.3907C7.01054 52.5345 5.63731 52.5788 4.26629 52.5234V52.2911C7.85926 52.1029 11.4189 51.5054 14.8761 50.5103C18.3258 49.6224 21.7267 48.5554 25.0651 47.3136C27.6234 46.3624 30.0932 45.3448 32.585 44.2387C36.1733 42.7786 39.6398 41.0752 43.073 39.3055C46.5063 37.5357 49.718 35.6111 53.0405 33.5759C55.2887 32.1711 57.6145 30.7553 59.8295 29.0961C61.6584 27.8087 63.3873 26.3851 65.0015 24.8376C66.0331 23.7998 66.94 22.6454 67.7038 21.3977C67.9602 20.9784 68.1156 20.5054 68.1579 20.016C68.2002 19.5266 68.1281 19.034 67.9475 18.5771C67.9475 18.5771 67.9475 18.4886 67.9475 18.4444C68.3854 18.9006 68.6452 19.4984 68.6797 20.1295C68.7142 20.7606 68.5213 21.3832 68.1357 21.8843C66.8831 23.8649 65.3114 25.6252 63.4842 27.0941C59.1394 30.5504 54.5374 33.6713 49.718 36.4296C46.2294 38.5201 42.619 40.3784 38.9531 42.1481C35.7635 43.6856 32.4854 45.0129 29.2182 46.3624C26.2501 47.6012 23.2156 48.6741 20.17 49.6807C19.8155 49.7375 19.4742 49.8574 19.1621 50.0347Z" fill="#060606"/>
<path d="M64.193 44.4488C64.1234 44.4346 64.0514 44.4362 63.9824 44.4534C63.9134 44.4707 63.8491 44.5031 63.7943 44.5484C61.8888 46.1293 59.8716 47.571 57.7585 48.8622C57.4594 48.9617 57.105 49.017 56.9832 49.3821C56.9695 49.3752 56.9543 49.3717 56.9389 49.3717C56.9235 49.3717 56.9084 49.3752 56.8946 49.3821C54.5246 50.5988 52.1988 51.9814 49.7734 53.0875C46.5284 54.6692 43.1949 56.0629 39.8059 57.3792C35.7303 58.972 31.5551 60.255 27.4241 61.6819C24.1733 62.7781 20.8403 63.614 17.4566 64.1817C16.724 64.4645 15.9102 64.4526 15.1862 64.1485C15.0422 64.0711 14.8983 64.0158 14.8318 63.8388C17.7685 63.7432 20.6753 63.2178 23.4592 62.2792C27.6788 61.1731 31.7766 59.6246 35.8964 58.1977C38.6541 57.2464 41.3564 56.1403 44.0476 55.0232C48.863 52.9717 53.5295 50.5878 58.0132 47.8888C60.1174 46.65 62.0334 45.1457 64.0048 43.7077C64.2311 43.5623 64.4176 43.3627 64.5471 43.127C64.6767 42.8914 64.7453 42.6271 64.7468 42.3583C64.754 42.1181 64.8204 41.8834 64.9402 41.6751C65.06 41.4667 65.2294 41.291 65.4334 41.1637C65.9027 40.8791 66.3375 40.5414 66.7292 40.1572C66.8732 40.1572 66.9396 40.0355 67.0172 39.9359C67.3362 39.699 67.61 39.4068 67.8256 39.0732L68.4901 38.4095C68.5898 38.3542 68.7116 38.321 68.6341 38.1662C69.1747 37.7799 69.6214 37.2771 69.941 36.6951C70.1028 36.4993 70.2012 36.259 70.2229 36.0061C70.2447 35.7532 70.1888 35.4997 70.0628 35.2792C70.0628 34.8921 69.8634 34.5382 69.941 34.1731C70.3382 34.6646 70.5426 35.2837 70.5161 35.9147C70.4896 36.5457 70.234 37.1455 69.797 37.6021C68.7086 39.0373 67.4519 40.3371 66.0536 41.4734C65.8058 41.6526 65.6028 41.8866 65.4607 42.1572C65.3185 42.4278 65.2409 42.7275 65.2341 43.033C65.1898 43.7299 64.6028 44.0396 64.193 44.4488Z" fill="#0D0D0C"/>
<path d="M14.8318 34.8036C14.149 34.8851 13.4814 35.0639 12.8494 35.3346C10.3195 36.0898 7.7238 36.6046 5.09691 36.872C3.73805 37.1743 2.32726 37.1554 0.977019 36.8167C2.74901 36.8246 4.51778 36.6653 6.25979 36.3411C9.41288 35.7621 12.5132 34.926 15.5296 33.8413C19.1511 32.6246 22.7061 31.2309 26.2501 29.8151C28.7309 28.8085 31.0788 27.5255 33.471 26.3309C36.6828 24.716 39.8834 23.0789 42.9623 21.2207C45.5206 19.6721 47.9793 17.9024 50.3715 16.1658C51.5864 15.3217 52.7581 14.4173 53.8822 13.4558C55.3069 12.3142 56.5341 10.9465 57.5148 9.4075C57.9934 8.49446 58.0967 7.43104 57.8028 6.44315C58.1947 6.83618 58.4454 7.34779 58.5155 7.89808C58.5856 8.44837 58.4713 9.00637 58.1904 9.48493C57.7508 10.4187 57.1511 11.2684 56.4184 11.9958C55.7976 12.5274 55.2401 13.1286 54.7571 13.7877C54.7571 13.7877 54.6021 13.7877 54.5246 13.843C54.3756 13.8989 54.2342 13.9732 54.1037 14.0642C51.7115 16.0773 49.1311 17.8581 46.5617 19.5947C43.1107 21.8884 39.5107 23.9503 35.7857 25.7668C32.8176 27.2932 29.8717 28.8528 26.7928 30.1912C24.2788 31.2973 21.7315 32.1932 19.1732 33.1445C17.7445 33.7528 16.2826 34.2838 14.8318 34.8036Z" fill="#0A0908"/>
<path d="M20.0924 66.7479C22.4602 67.7592 24.9344 68.5013 27.4684 68.9601C34.0997 70.1556 40.9393 69.2466 47.0268 66.3607C53.2479 63.5378 58.352 58.7281 61.535 52.6893C62.6766 50.4958 63.4936 48.1486 63.9605 45.7209C64.0169 45.4614 64.1023 45.2091 64.2152 44.9687C64.6693 44.9023 64.7136 45.0351 64.6139 45.4886C64.1023 48.2182 63.2075 50.8621 61.9559 53.3419C60.677 55.6923 59.0986 57.8673 57.2601 59.8126C54.5244 62.773 51.2265 65.1606 47.5584 66.8364C44.5315 68.2424 41.3154 69.2001 38.0118 69.679C33.634 70.3119 29.1715 70.0065 24.9211 68.7831C23.2064 68.335 21.5434 67.7085 19.9595 66.9138L20.0924 66.7479Z" fill="#0D0D0C"/>
<path d="M19.1621 50.0347C19.4757 49.8651 19.817 49.7528 20.17 49.7028C20.1645 49.7432 20.1645 49.7841 20.17 49.8245C19.8488 49.9572 19.5498 50.2116 19.1621 50.0347Z" fill="#EDC78E"/>
<path d="M56.9832 49.3821C57.105 49.017 57.4594 48.9617 57.7585 48.8622C57.705 49.0222 57.5999 49.1601 57.4596 49.2541C57.3193 49.3482 57.1518 49.3932 56.9832 49.3821Z" fill="#EDC78E"/>
<path d="M85.6318 19.1407C80.3857 19.1407 76.9361 15.4084 76.9361 10.5277V10.4799C76.9361 5.79057 80.5294 1.81902 85.5839 1.81902C88.5065 1.81902 90.3031 2.63247 92.0279 4.0919L90.1594 6.31692C88.8658 5.21637 87.5962 4.52255 85.4641 4.52255C82.3739 4.52255 80.0263 7.22607 80.0263 10.432V10.4799C80.0263 13.9251 82.3021 16.4611 85.7277 16.4611C87.3087 16.4611 88.746 15.9587 89.7761 15.1931V12.0589H85.4881V9.49895H92.6267V16.5329C90.9738 17.9445 88.6023 19.1407 85.6318 19.1407Z" fill="white"/>
<path d="M96.4639 18.8536V2.10612H99.4104V16.174H108.226V18.8536H96.4639Z" fill="white"/>
<path d="M118.337 19.1407C113.187 19.1407 109.594 15.2409 109.594 10.5277V10.4799C109.594 5.76665 113.235 1.81902 118.385 1.81902C123.536 1.81902 127.129 5.7188 127.129 10.432V10.4799C127.129 15.1931 123.488 19.1407 118.337 19.1407ZM118.385 16.4372C121.715 16.4372 124.039 13.7815 124.039 10.5277V10.4799C124.039 7.22607 121.667 4.52255 118.337 4.52255C115.008 4.52255 112.684 7.17822 112.684 10.432V10.4799C112.684 13.7337 115.056 16.4372 118.385 16.4372Z" fill="white"/>
<path d="M131.381 18.8536V2.10612H138.903C140.82 2.10612 142.329 2.63247 143.287 3.58947C144.03 4.33114 144.413 5.2403 144.413 6.36477V6.41262C144.413 8.42232 143.263 9.49895 142.017 10.1449C143.982 10.8148 145.347 11.9393 145.347 14.2122V14.26C145.347 17.2506 142.88 18.8536 139.143 18.8536H131.381ZM134.28 9.164H138.304C140.197 9.164 141.466 8.42232 141.466 6.89112V6.84327C141.466 5.52739 140.412 4.71395 138.52 4.71395H134.28V9.164ZM134.28 16.2458H139.167C141.179 16.2458 142.401 15.4563 142.401 13.949V13.9011C142.401 12.4896 141.275 11.6522 138.951 11.6522H134.28V16.2458Z" fill="white"/>
<path d="M147.232 18.8536L154.61 1.98649H157.341L164.719 18.8536H161.605L159.904 14.8103H151.975L150.25 18.8536H147.232ZM153.053 12.2025H158.826L155.928 5.50347L153.053 12.2025Z" fill="white"/>
<path d="M167.595 18.8536V2.10612H170.541V16.174H179.357V18.8536H167.595Z" fill="white"/>
<path d="M77.6787 42.8118V26.0643H90.1115V28.6961H80.6252V33.0504H89.0335V35.6822H80.6252V40.1801H90.2312V42.8118H77.6787Z" fill="white"/>
<path d="M93.7268 42.8118V26.0643H96.4577L105.441 37.644V26.0643H108.339V42.8118H105.872L96.6254 30.8972V42.8118H93.7268Z" fill="white"/>
<path d="M116.773 42.8118V28.7918H111.455V26.0643H125.061V28.7918H119.743V42.8118H116.773Z" fill="white"/>
<path d="M128.186 42.8118V26.0643H135.66C137.768 26.0643 139.421 26.6864 140.499 27.7391C141.385 28.6482 141.888 29.8923 141.888 31.3517V31.3996C141.888 34.151 140.235 35.8018 137.888 36.4717L142.415 42.8118H138.942L134.821 36.9741H131.132V42.8118H128.186ZM131.132 34.3663H135.444C137.552 34.3663 138.894 33.2657 138.894 31.5671V31.5192C138.894 29.7248 137.6 28.7439 135.42 28.7439H131.132V34.3663Z" fill="white"/>
<path d="M145.497 42.8118V26.0643H157.93V28.6961H148.444V33.0504H156.852V35.6822H148.444V40.1801H158.05V42.8118H145.497Z" fill="white"/>
<path d="M161.545 42.8118V26.0643H168.157C172.062 26.0643 174.529 28.2893 174.529 31.6628V31.7106C174.529 35.4668 171.511 37.4287 167.822 37.4287H164.492V42.8118H161.545ZM164.492 34.773H167.917C170.145 34.773 171.535 33.5289 171.535 31.7824V31.7345C171.535 29.7727 170.121 28.7439 167.917 28.7439H164.492V34.773Z" fill="white"/>
<path d="M177.547 42.8118V26.0643H185.021C187.129 26.0643 188.782 26.6864 189.86 27.7391C190.746 28.6482 191.249 29.8923 191.249 31.3517V31.3996C191.249 34.151 189.596 35.8018 187.248 36.4717L191.776 42.8118H188.302L184.182 36.9741H180.493V42.8118H177.547ZM180.493 34.3663H184.805C186.913 34.3663 188.255 33.2657 188.255 31.5671V31.5192C188.255 29.7248 186.961 28.7439 184.781 28.7439H180.493V34.3663Z" fill="white"/>
<path d="M194.858 42.8118V26.0643H207.291V28.6961H197.804V33.0504H206.213V35.6822H197.804V40.1801H207.41V42.8118H194.858Z" fill="white"/>
<path d="M210.906 42.8118V26.0643H213.637L222.62 37.644V26.0643H225.519V42.8118H223.051L213.805 30.8972V42.8118H210.906Z" fill="white"/>
<path d="M229.832 42.8118V26.0643H242.264V28.6961H232.778V33.0504H241.186V35.6822H232.778V40.1801H242.384V42.8118H229.832Z" fill="white"/>
<path d="M252.755 43.075C248.395 43.075 245.616 40.5629 245.616 35.7061V26.0643H248.563V35.5865C248.563 38.6967 250.168 40.3715 252.803 40.3715C255.414 40.3715 257.019 38.7924 257.019 35.7061V26.0643H259.965V35.5625C259.965 40.5629 257.139 43.075 252.755 43.075Z" fill="white"/>
<path d="M264.01 42.8118V26.0643H271.484C273.592 26.0643 275.245 26.6864 276.323 27.7391C277.209 28.6482 277.712 29.8923 277.712 31.3517V31.3996C277.712 34.151 276.059 35.8018 273.712 36.4717L278.239 42.8118H274.766L270.645 36.9741H266.956V42.8118H264.01ZM266.956 34.3663H271.268C273.376 34.3663 274.718 33.2657 274.718 31.5671V31.5192C274.718 29.7248 273.424 28.7439 271.244 28.7439H266.956V34.3663Z" fill="white"/>
<path d="M287.19 43.0511C284.627 43.0511 282.208 42.1658 280.195 40.3715L281.968 38.2661C283.573 39.6537 285.178 40.4432 287.262 40.4432C289.083 40.4432 290.233 39.6059 290.233 38.3378V38.29C290.233 37.0937 289.562 36.4478 286.448 35.73C282.878 34.8687 280.866 33.816 280.866 30.7297V30.6818C280.866 27.8108 283.262 25.8251 286.591 25.8251C289.035 25.8251 290.975 26.5667 292.676 27.9305L291.095 30.1555C289.586 29.031 288.077 28.4329 286.543 28.4329C284.819 28.4329 283.813 29.3181 283.813 30.4187V30.4665C283.813 31.7585 284.579 32.3327 287.789 33.0983C291.335 33.9596 293.179 35.2276 293.179 38.0029V38.0507C293.179 41.1849 290.712 43.0511 287.19 43.0511Z" fill="white"/>
<path d="M296.644 42.8118V26.0643H299.591V33.0265H307.592V26.0643H310.538V42.8118H307.592V35.7539H299.591V42.8118H296.644Z" fill="white"/>
<path d="M315.012 42.8118V26.0643H317.959V42.8118H315.012Z" fill="white"/>
<path d="M322.447 42.8118V26.0643H329.059C332.964 26.0643 335.431 28.2893 335.431 31.6628V31.7106C335.431 35.4668 332.413 37.4287 328.724 37.4287H325.394V42.8118H322.447ZM325.394 34.773H328.82C331.047 34.773 332.437 33.5289 332.437 31.7824V31.7345C332.437 29.7727 331.023 28.7439 328.82 28.7439H325.394V34.773Z" fill="white"/>
<path d="M83.5477 66.4673C80.9845 66.4673 78.5651 65.582 76.5528 63.7877L78.3255 61.6823C79.9305 63.0699 81.5355 63.8594 83.6196 63.8594C85.4402 63.8594 86.59 63.0221 86.59 61.754V61.7062C86.59 60.5099 85.9193 59.864 82.8051 59.1462C79.2358 58.2849 77.2236 57.2322 77.2236 54.1459V54.098C77.2236 51.227 79.6191 49.2412 82.9489 49.2412C85.3923 49.2412 87.3326 49.9829 89.0335 51.3467L87.4524 53.5717C85.9433 52.4472 84.4341 51.8491 82.9009 51.8491C81.1762 51.8491 80.1701 52.7343 80.1701 53.8349V53.8827C80.1701 55.1747 80.9366 55.7488 84.1466 56.5145C87.692 57.3758 89.5365 58.6438 89.5365 61.4191V61.4669C89.5365 64.6011 87.0691 66.4673 83.5477 66.4673Z" fill="white"/>
<path d="M99.8768 66.4912C95.5169 66.4912 92.7381 63.979 92.7381 59.1223V49.4805H95.6846V59.0027C95.6846 62.1129 97.2896 63.7877 99.9247 63.7877C102.536 63.7877 104.141 62.2086 104.141 59.1223V49.4805H107.087V58.9787C107.087 63.979 104.261 66.4912 99.8768 66.4912Z" fill="white"/>
<path d="M111.132 66.228V49.4805H114.27L119.372 57.3997L124.475 49.4805H127.613V66.228H124.666V54.2177L119.372 62.1129H119.277L114.03 54.2655V66.228H111.132Z" fill="white"/>
<path d="M131.929 66.228V49.4805H135.067L140.169 57.3997L145.272 49.4805H148.41V66.228H145.463V54.2177L140.169 62.1129H140.074L134.827 54.2655V66.228H131.929Z" fill="white"/>
<path d="M152.894 66.228V49.4805H155.84V66.228H152.894Z" fill="white"/>
<path d="M164.449 66.228V52.208H159.131V49.4805H172.738V52.208H167.42V66.228H164.449Z" fill="white"/>
<path d="M182.062 66.228V63.9073L187.835 59.0027C190.135 57.0647 190.973 55.9881 190.973 54.4808C190.973 52.83 189.799 51.873 188.266 51.873C186.733 51.873 185.679 52.7104 184.386 54.3851L182.302 52.7582C183.907 50.5093 185.488 49.2412 188.482 49.2412C191.764 49.2412 194.016 51.251 194.016 54.2416V54.2894C194.016 56.9212 192.626 58.3567 189.656 60.7731L186.206 63.6441H194.183V66.228H182.062Z" fill="white"/>
<path d="M204.227 66.5151C199.819 66.5151 196.945 62.6871 196.945 57.9021V57.8543C196.945 53.0693 199.867 49.1934 204.275 49.1934C208.659 49.1934 211.558 53.0214 211.558 57.8064V57.8543C211.558 62.6393 208.635 66.5151 204.227 66.5151ZM204.275 63.8594C206.886 63.8594 208.515 61.2038 208.515 57.9021V57.8543C208.515 54.5526 206.814 51.8491 204.227 51.8491C201.64 51.8491 199.987 54.4808 199.987 57.8064V57.8543C199.987 61.1559 201.664 63.8594 204.275 63.8594Z" fill="white"/>
<path d="M213.854 66.228V63.9073L219.627 59.0027C221.927 57.0647 222.765 55.9881 222.765 54.4808C222.765 52.83 221.592 51.873 220.058 51.873C218.525 51.873 217.471 52.7104 216.178 54.3851L214.094 52.7582C215.699 50.5093 217.28 49.2412 220.274 49.2412C223.556 49.2412 225.808 51.251 225.808 54.2416V54.2894C225.808 56.9212 224.418 58.3567 221.448 60.7731L217.998 63.6441H225.975V66.228H213.854Z" fill="white"/>
<path d="M236.773 66.228V62.4718H228.317L227.766 60.3664L237.085 49.3609H239.6V60.0554H241.995V62.4718H239.6V66.228H236.773ZM231.263 60.0554H236.773V53.4281L231.263 60.0554Z" fill="white"/>
<path d="M340.27 4.20882H182.983V20.8004H340.27V4.20882Z" fill="#BD3A44"/>
<path d="M186.34 14.7942V7.82578H189.34C190.198 7.82578 190.885 8.08461 191.324 8.52262C191.663 8.86109 191.862 9.34888 191.862 9.8964V9.91631C191.862 11.0711 191.065 11.748 189.968 11.9471L192.111 14.7942H191.144L189.121 12.0865H187.128V14.7942H186.34ZM187.128 11.3797H189.271C190.317 11.3797 191.065 10.8421 191.065 9.94618V9.92627C191.065 9.07014 190.407 8.55249 189.281 8.55249H187.128V11.3797Z" fill="white"/>
<path d="M193.613 14.7942V7.82578H194.4V14.7942H193.613Z" fill="white"/>
<path d="M198.836 14.8938C197.73 14.8938 196.823 14.5254 195.985 13.7788L196.474 13.2014C197.201 13.8585 197.899 14.187 198.866 14.187C199.803 14.187 200.421 13.6892 200.421 13.0023V12.9824C200.421 12.3354 200.072 11.967 198.607 11.6584C197.002 11.31 196.264 10.7923 196.264 9.64753V9.62762C196.264 8.53258 197.231 7.72623 198.557 7.72623C199.574 7.72623 200.301 8.01492 201.009 8.58235L200.551 9.1896C199.903 8.66199 199.255 8.43303 198.537 8.43303C197.63 8.43303 197.052 8.93077 197.052 9.55793V9.57784C197.052 10.2349 197.411 10.6032 198.946 10.9317C200.501 11.2702 201.218 11.8376 201.218 12.9028V12.9227C201.218 14.1173 200.222 14.8938 198.836 14.8938Z" fill="white"/>
<path d="M202.889 14.7942V7.82578H203.677V14.7942H202.889Z" fill="white"/>
<path d="M205.72 14.7942V7.82578H206.458L210.854 13.4105V7.82578H211.621V14.7942H210.993L206.488 9.0801V14.7942H205.72Z" fill="white"/>
<path d="M216.834 14.9137C214.642 14.9137 213.286 13.3209 213.286 11.3299V11.31C213.286 9.39865 214.691 7.70632 216.785 7.70632C217.961 7.70632 218.688 8.04479 219.386 8.63213L218.878 9.22942C218.34 8.76154 217.741 8.43303 216.755 8.43303C215.21 8.43303 214.103 9.73712 214.103 11.2901V11.31C214.103 12.9725 215.17 14.2069 216.864 14.2069C217.662 14.2069 218.399 13.8983 218.878 13.51V11.7779H216.755V11.0711H219.635V13.8485C218.987 14.4259 218.011 14.9137 216.834 14.9137Z" fill="white"/>
<path d="M226.244 14.7942V8.55249H223.901V7.82578H229.383V8.55249H227.041V14.7942H226.244Z" fill="white"/>
<path d="M230.863 14.7942V7.82578H231.65V10.9218H235.677V7.82578H236.465V14.7942H235.677V11.6584H231.65V14.7942H230.863Z" fill="white"/>
<path d="M238.436 14.7942V7.82578H241.436C242.293 7.82578 242.981 8.08461 243.42 8.52262C243.758 8.86109 243.958 9.34888 243.958 9.8964V9.91631C243.958 11.0711 243.16 11.748 242.064 11.9471L244.207 14.7942H243.24L241.217 12.0865H239.223V14.7942H238.436ZM239.223 11.3797H241.366C242.413 11.3797 243.16 10.8421 243.16 9.94618V9.92627C243.16 9.07014 242.503 8.55249 241.376 8.55249H239.223V11.3797Z" fill="white"/>
<path d="M248.878 14.9137C246.755 14.9137 245.33 13.2512 245.33 11.3299V11.31C245.33 9.3887 246.775 7.70632 248.898 7.70632C251.021 7.70632 252.447 9.36879 252.447 11.2901V11.31C252.447 13.2313 251.001 14.9137 248.878 14.9137ZM248.898 14.187C250.493 14.187 251.629 12.9127 251.629 11.3299V11.31C251.629 9.72717 250.473 8.43303 248.878 8.43303C247.284 8.43303 246.147 9.70726 246.147 11.2901V11.31C246.147 12.8928 247.303 14.187 248.898 14.187Z" fill="white"/>
<path d="M256.898 14.9037C255.174 14.9037 253.998 13.8485 253.998 11.8774V7.82578H254.785V11.8277C254.785 13.3308 255.583 14.177 256.918 14.177C258.204 14.177 259.021 13.4005 259.021 11.8774V7.82578H259.809V11.8177C259.809 13.8485 258.643 14.9037 256.898 14.9037Z" fill="white"/>
<path d="M264.91 14.9137C262.717 14.9137 261.362 13.3209 261.362 11.3299V11.31C261.362 9.39865 262.767 7.70632 264.86 7.70632C266.036 7.70632 266.764 8.04479 267.462 8.63213L266.953 9.22942C266.415 8.76154 265.817 8.43303 264.83 8.43303C263.285 8.43303 262.179 9.73712 262.179 11.2901V11.31C262.179 12.9725 263.245 14.2069 264.94 14.2069C265.737 14.2069 266.475 13.8983 266.953 13.51V11.7779H264.83V11.0711H267.711V13.8485C267.063 14.4259 266.086 14.9137 264.91 14.9137Z" fill="white"/>
<path d="M269.487 14.7942V7.82578H270.274V10.9218H274.301V7.82578H275.089V14.7942H274.301V11.6584H270.274V14.7942H269.487Z" fill="white"/>
<path d="M280.048 14.7942V7.82578H283.048C283.906 7.82578 284.593 8.08461 285.032 8.52262C285.371 8.86109 285.57 9.34888 285.57 9.8964V9.91631C285.57 11.0711 284.773 11.748 283.676 11.9471L285.819 14.7942H284.852L282.829 12.0865H280.836V14.7942H280.048ZM280.836 11.3797H282.979C284.025 11.3797 284.773 10.8421 284.773 9.94618V9.92627C284.773 9.07014 284.115 8.55249 282.989 8.55249H280.836V11.3797Z" fill="white"/>
<path d="M287.251 14.7942V7.82578H292.295V8.54253H288.039V10.9218H291.846V11.6385H288.039V14.0775H292.345V14.7942H287.251Z" fill="white"/>
<path d="M296.321 14.8938C295.214 14.8938 294.307 14.5254 293.47 13.7788L293.959 13.2014C294.686 13.8585 295.384 14.187 296.351 14.187C297.288 14.187 297.906 13.6892 297.906 13.0023V12.9824C297.906 12.3354 297.557 11.967 296.092 11.6584C294.487 11.31 293.749 10.7923 293.749 9.64753V9.62762C293.749 8.53258 294.716 7.72623 296.042 7.72623C297.058 7.72623 297.786 8.01492 298.494 8.58235L298.035 9.1896C297.387 8.66199 296.74 8.43303 296.022 8.43303C295.115 8.43303 294.537 8.93077 294.537 9.55793V9.57784C294.537 10.2349 294.896 10.6032 296.43 10.9317C297.985 11.2702 298.703 11.8376 298.703 12.9028V12.9227C298.703 14.1173 297.706 14.8938 296.321 14.8938Z" fill="white"/>
<path d="M300.374 14.7942V7.82578H301.162V14.7942H300.374Z" fill="white"/>
<path d="M303.205 14.7942V7.82578H303.992V14.0675H307.92V14.7942H303.205Z" fill="white"/>
<path d="M309.446 14.7942V7.82578H310.234V14.7942H309.446Z" fill="white"/>
<path d="M312.277 14.7942V7.82578H317.321V8.54253H313.064V10.9218H316.872V11.6385H313.064V14.0775H317.37V14.7942H312.277Z" fill="white"/>
<path d="M318.954 14.7942V7.82578H319.692L324.088 13.4105V7.82578H324.855V14.7942H324.227L319.722 9.0801V14.7942H318.954Z" fill="white"/>
<path d="M330.019 14.9137C328.005 14.9137 326.52 13.3309 326.52 11.3299V11.31C326.52 9.33893 327.995 7.70632 330.049 7.70632C331.315 7.70632 332.072 8.15429 332.77 8.81131L332.232 9.3887C331.643 8.83122 330.986 8.43303 330.039 8.43303C328.494 8.43303 327.337 9.68735 327.337 11.2901V11.31C327.337 12.9227 328.504 14.187 330.039 14.187C330.996 14.187 331.624 13.8186 332.291 13.1815L332.81 13.6892C332.082 14.4259 331.285 14.9137 330.019 14.9137Z" fill="white"/>
<path d="M334.188 14.7942V7.82578H339.232V8.54253H334.975V10.9218H338.783V11.6385H334.975V14.0775H339.281V14.7942H334.188Z" fill="white"/>
<path d="M338.498 53.1428H246.576V68.6282H338.498V53.1428Z" fill="#BD3A44"/>
<path d="M250.951 63.5512V62.8765L253.764 60.3988C254.949 59.337 255.38 58.7397 255.38 57.9654C255.38 57.0584 254.661 56.4832 253.819 56.4832C252.933 56.4832 252.357 56.9478 251.737 57.8106L251.094 57.346C251.792 56.3063 252.523 55.6979 253.885 55.6979C255.281 55.6979 256.289 56.627 256.289 57.888V57.9101C256.289 59.0383 255.691 59.7352 254.328 60.9187L252.257 62.7548H256.366V63.5512H250.951Z" fill="white"/>
<path d="M258.145 63.5512V55.8085H258.965L263.849 62.0137V55.8085H264.702V63.5512H264.004L258.998 57.2022V63.5512H258.145Z" fill="white"/>
<path d="M266.895 63.5512V55.8085H269.586C272.023 55.8085 273.706 57.4787 273.706 59.6577V59.6799C273.706 61.8589 272.023 63.5512 269.586 63.5512H266.895ZM267.77 62.7438H269.586C271.546 62.7438 272.798 61.4165 272.798 59.702V59.6799C272.798 57.9654 271.546 56.616 269.586 56.616H267.77V62.7438Z" fill="white"/>
<path d="M278.502 60.6754V59.7794H281.581V60.6754H278.502Z" fill="white"/>
<path d="M290.408 63.5512V61.7151H286.321L286.099 61.0846L290.485 55.7532H291.249V60.9851H292.456V61.7151H291.249V63.5512H290.408ZM287.151 60.9851H290.408V56.992L287.151 60.9851Z" fill="white"/>
<path d="M296.199 63.5512V56.616H293.596V55.8085H299.687V56.616H297.085V63.5512H296.199Z" fill="white"/>
<path d="M301.331 63.5512V55.8085H302.206V59.2485H306.68V55.8085H307.555V63.5512H306.68V60.067H302.206V63.5512H301.331Z" fill="white"/>
<path d="M313.066 63.5512V55.8085H318.637V56.616H313.941V59.3812H318.138V60.1776H313.941V63.5512H313.066Z" fill="white"/>
<path d="M320.334 63.5512V55.8085H325.938V56.6049H321.209V59.2485H325.439V60.0449H321.209V62.7548H325.993V63.5512H320.334Z" fill="white"/>
<path d="M327.753 63.5512V55.8085H331.054C331.94 55.8085 332.637 56.0629 333.08 56.4943C333.401 56.8261 333.579 57.2354 333.579 57.7331V57.7553C333.579 58.7618 332.958 59.2817 332.349 59.5471C333.269 59.8237 334.011 60.3546 334.011 61.4165V61.4386C334.011 62.7659 332.892 63.5512 331.198 63.5512H327.753ZM328.617 59.2596H330.91C331.962 59.2596 332.693 58.7839 332.693 57.8769V57.8548C332.693 57.0916 332.083 56.5938 330.976 56.5938H328.617V59.2596ZM328.617 62.7659H331.22C332.394 62.7659 333.125 62.246 333.125 61.3833V61.3611C333.125 60.5205 332.416 60.0338 331.065 60.0338H328.617V62.7659Z" fill="white"/>
<defs>
<linearGradient id="paint0_linear_208_13109" x1="0.122644" y1="35.026" x2="339.99" y2="35.026" gradientUnits="userSpaceOnUse">
<stop stop-color="#FAC929"/>
<stop offset="0.05" stop-color="#FBD553"/>
<stop offset="0.11" stop-color="#FBE079"/>
<stop offset="0.17" stop-color="#FBE997"/>
<stop offset="0.23" stop-color="#FCEFAF"/>
<stop offset="0.3" stop-color="#FCF4C0"/>
<stop offset="0.37" stop-color="#FCF7CA"/>
<stop offset="0.46" stop-color="#FCF8CD"/>
<stop offset="0.78" stop-color="#EDD586"/>
<stop offset="1" stop-color="#FCF8CD"/>
</linearGradient>
<linearGradient id="paint1_linear_208_13109" x1="0" y1="35.0233" x2="340.529" y2="35.0233" gradientUnits="userSpaceOnUse">
<stop stop-color="#FAC929"/>
<stop offset="0.05" stop-color="#FBD553"/>
<stop offset="0.11" stop-color="#FBE079"/>
<stop offset="0.17" stop-color="#FBE997"/>
<stop offset="0.23" stop-color="#FCEFAF"/>
<stop offset="0.3" stop-color="#FCF4C0"/>
<stop offset="0.37" stop-color="#FCF7CA"/>
<stop offset="0.46" stop-color="#FCF8CD"/>
<stop offset="0.78" stop-color="#EDD586"/>
<stop offset="1" stop-color="#FCF8CD"/>
</linearGradient>
<linearGradient id="paint2_linear_208_13109" x1="0" y1="35.094" x2="340.351" y2="35.094" gradientUnits="userSpaceOnUse">
<stop stop-color="#FAC929"/>
<stop offset="0.05" stop-color="#FBD553"/>
<stop offset="0.11" stop-color="#FBE079"/>
<stop offset="0.17" stop-color="#FBE997"/>
<stop offset="0.23" stop-color="#FCEFAF"/>
<stop offset="0.3" stop-color="#FCF4C0"/>
<stop offset="0.37" stop-color="#FCF7CA"/>
<stop offset="0.46" stop-color="#FCF8CD"/>
<stop offset="0.78" stop-color="#EDD586"/>
<stop offset="1" stop-color="#FCF8CD"/>
</linearGradient>
</defs>
</svg>
